<?xml version="1.0" encoding="UTF-8" standalone="no"?><!-- Generator: Gravit.io --><svg xmlns="http://www.w3.org/2000/svg" xmlns:xlink="http://www.w3.org/1999/xlink" style="isolation:isolate" viewBox="0 0 15.353 15.353" width="15.353pt" height="15.353pt"><defs><clipPath id="_clipPath_aMAuKjJZhPQoHeha38DT8r8VYElBhbyB"><rect width="15.353" height="15.353"/></clipPath></defs><g clip-path="url(#_clipPath_aMAuKjJZhPQoHeha38DT8r8VYElBhbyB)"><g/><g><g><g/></g></g><g><g><path d="M 8.933 6.487 L 8.876 6.43 C 8.69 6.244 8.69 5.942 8.876 5.756 L 14.358 0.273 C 14.545 0.087 14.847 0.087 15.033 0.273 L 15.089 0.33 C 15.275 0.516 15.275 0.818 15.089 1.004 L 9.607 6.487 C 9.421 6.673 9.119 6.673 8.933 6.487 Z" style="stroke:none;fill:#181C24;stroke-miterlimit:10;"/><path d="M 13.384 6.143 L 13.384 6.143 C 13.384 6.428 13.152 6.659 12.867 6.659 L 9.22 6.659 C 8.935 6.659 8.704 6.428 8.704 6.143 L 8.704 6.143 C 8.704 5.858 8.935 5.626 9.22 5.626 L 12.867 5.626 C 13.152 5.626 13.384 5.858 13.384 6.143 Z" style="stroke:none;fill:#181C24;stroke-miterlimit:10;"/><path d="M 9.22 1.979 L 9.22 1.979 C 9.505 1.979 9.736 2.211 9.736 2.496 L 9.736 6.143 C 9.736 6.428 9.505 6.659 9.22 6.659 L 9.22 6.659 C 8.935 6.659 8.704 6.428 8.704 6.143 L 8.704 2.496 C 8.704 2.211 8.935 1.979 9.22 1.979 Z" style="stroke:none;fill:#181C24;stroke-miterlimit:10;"/><path d="M 6.352 8.93 L 6.411 8.989 C 6.596 9.175 6.596 9.476 6.411 9.661 L 0.97 15.102 C 0.785 15.287 0.484 15.287 0.298 15.102 L 0.239 15.043 C 0.054 14.857 0.054 14.556 0.239 14.371 L 5.68 8.93 C 5.865 8.745 6.166 8.745 6.352 8.93 Z" style="stroke:none;fill:#181C24;stroke-miterlimit:10;"/><path d="M 1.888 9.289 L 1.888 9.289 C 1.888 9.004 2.12 8.772 2.405 8.772 L 6.052 8.772 C 6.337 8.772 6.568 9.004 6.568 9.289 L 6.568 9.289 C 6.568 9.574 6.337 9.805 6.052 9.805 L 2.405 9.805 C 2.12 9.805 1.888 9.574 1.888 9.289 Z" style="stroke:none;fill:#181C24;stroke-miterlimit:10;"/><path d="M 6.052 13.452 L 6.052 13.452 C 5.767 13.452 5.536 13.221 5.536 12.936 L 5.536 9.289 C 5.536 9.004 5.767 8.772 6.052 8.772 L 6.052 8.772 C 6.337 8.772 6.568 9.004 6.568 9.289 L 6.568 12.936 C 6.568 13.221 6.337 13.452 6.052 13.452 Z" style="stroke:none;fill:#181C24;stroke-miterlimit:10;"/></g></g></g></svg>