<?xml version="1.0" encoding="UTF-8" standalone="no"?><!-- Generator: Gravit.io --><svg xmlns="http://www.w3.org/2000/svg" xmlns:xlink="http://www.w3.org/1999/xlink" style="isolation:isolate" viewBox="0 0 15.353 15.353" width="15.353pt" height="15.353pt"><defs><clipPath id="_clipPath_q3rmneqbjTsnNrmxur1cw94eUrL6z6Re"><rect width="15.353" height="15.353"/></clipPath></defs><g clip-path="url(#_clipPath_q3rmneqbjTsnNrmxur1cw94eUrL6z6Re)"><g/><g><g><path d="M 14.987 0.307 L 15.046 0.366 C 15.232 0.552 15.232 0.853 15.046 1.038 L 9.605 6.479 C 9.42 6.664 9.119 6.664 8.934 6.479 L 8.875 6.42 C 8.689 6.234 8.689 5.933 8.875 5.748 L 14.315 0.307 C 14.501 0.122 14.802 0.122 14.987 0.307 Z" style="stroke:none;fill:#181C24;stroke-miterlimit:10;"/><path d="M 10.524 0.666 L 10.524 0.666 C 10.524 0.381 10.755 0.149 11.04 0.149 L 14.688 0.149 C 14.973 0.149 15.204 0.381 15.204 0.666 L 15.204 0.666 C 15.204 0.951 14.973 1.182 14.688 1.182 L 11.04 1.182 C 10.755 1.182 10.524 0.951 10.524 0.666 Z" style="stroke:none;fill:#181C24;stroke-miterlimit:10;"/><path d="M 14.688 4.829 L 14.688 4.829 C 14.403 4.829 14.171 4.598 14.171 4.313 L 14.171 0.666 C 14.171 0.381 14.403 0.149 14.688 0.149 L 14.688 0.149 C 14.973 0.149 15.204 0.381 15.204 0.666 L 15.204 4.313 C 15.204 4.598 14.973 4.829 14.688 4.829 Z" style="stroke:none;fill:#181C24;stroke-miterlimit:10;"/><path d="M 0.329 15.069 L 0.272 15.012 C 0.086 14.826 0.086 14.524 0.272 14.338 L 5.755 8.855 C 5.941 8.669 6.243 8.669 6.429 8.855 L 6.486 8.912 C 6.672 9.098 6.672 9.4 6.486 9.586 L 1.003 15.069 C 0.817 15.255 0.515 15.255 0.329 15.069 Z" style="stroke:none;fill:#181C24;stroke-miterlimit:10;"/><path d="M 4.78 14.724 L 4.78 14.724 C 4.78 15.009 4.549 15.241 4.264 15.241 L 0.616 15.241 C 0.331 15.241 0.1 15.009 0.1 14.724 L 0.1 14.724 C 0.1 14.439 0.331 14.208 0.616 14.208 L 4.264 14.208 C 4.549 14.208 4.78 14.439 4.78 14.724 Z" style="stroke:none;fill:#181C24;stroke-miterlimit:10;"/><path d="M 0.616 10.561 L 0.616 10.561 C 0.901 10.561 1.133 10.792 1.133 11.077 L 1.133 14.724 C 1.133 15.009 0.901 15.241 0.616 15.241 L 0.616 15.241 C 0.331 15.241 0.1 15.009 0.1 14.724 L 0.1 11.077 C 0.1 10.792 0.331 10.561 0.616 10.561 Z" style="stroke:none;fill:#181C24;stroke-miterlimit:10;"/></g></g></g></svg>